<?xml version="1.0" encoding="utf-8"?>
<!-- Generator: Adobe Illustrator 24.0.2, SVG Export Plug-In . SVG Version: 6.00 Build 0)  -->
<svg version="1.1" id="Capa_1" xmlns="http://www.w3.org/2000/svg" xmlns:xlink="http://www.w3.org/1999/xlink" x="0px" y="0px"
	 viewBox="0 0 8 8.5" style="enable-background:new 0 0 8 8.5;" xml:space="preserve">
<style type="text/css">
	.st0{fill:#1767A8;}
	.st1{fill:none;}
	.st2{fill:#FFFFFF;}
</style>
<rect class="st0" width="8" height="8.5"/>
<g>
	<rect x="0.3" y="1" class="st1" width="7.3" height="6.4"/>
	<path class="st2" d="M3.9,1.3c1,0,1.9,0.4,1.9,1.5c0,0.6-0.2,1-0.8,1.3c0.8,0.1,1.3,0.6,1.3,1.5c0,1-0.7,1.7-2,1.7H2V1.3H3.9z
		 M3.5,3.7c0.6,0,0.9-0.2,0.9-0.7c0-0.4-0.3-0.6-0.9-0.6H3.4v1.3H3.5z M3.8,6.3c0.7,0,1-0.2,1-0.7c0-0.6-0.4-0.8-1-0.8H3.4v1.4H3.8z
		"/>
</g>
</svg>
