<?xml version="1.0" encoding="utf-8"?>
<!-- Generator: Adobe Illustrator 24.0.2, SVG Export Plug-In . SVG Version: 6.00 Build 0)  -->
<svg version="1.1" id="Capa_1" xmlns:svgjs="http://svgjs.com/svgjs"
	 xmlns="http://www.w3.org/2000/svg" xmlns:xlink="http://www.w3.org/1999/xlink" x="0px" y="0px" viewBox="0 0 32 32"
	 style="enable-background:new 0 0 32 32;" xml:space="preserve">
<style type="text/css">
	.st0{fill:#0169B5;}
</style>
<g>
	<path class="st0" d="M28.7,0.5H3.3c-1.5,0-2.8,1.3-2.8,2.8v25.4c0,1.5,1.3,2.8,2.8,2.8h25.4c1.5,0,2.8-1.3,2.8-2.8V3.3
		C31.5,1.8,30.2,0.5,28.7,0.5z M10.1,27.3c0,0.5-0.4,0.8-0.8,0.8H5.8c-0.5,0-0.8-0.4-0.8-0.8V12.7c0-0.5,0.4-0.8,0.8-0.8h3.5
		c0.5,0,0.8,0.4,0.8,0.8V27.3z M7.5,10.5c-1.8,0-3.3-1.5-3.3-3.3s1.5-3.3,3.3-3.3s3.3,1.5,3.3,3.3S9.4,10.5,7.5,10.5z M28.2,27.3
		c0,0.4-0.3,0.8-0.8,0.8h-3.7c-0.4,0-0.8-0.3-0.8-0.8v-6.8c0-1,0.3-4.5-2.7-4.5c-2.3,0-2.8,2.4-2.9,3.4v7.9c0,0.4-0.3,0.8-0.8,0.8
		h-3.6c-0.4,0-0.8-0.3-0.8-0.8V12.6c0-0.4,0.3-0.8,0.8-0.8h3.6c0.4,0,0.8,0.3,0.8,0.8v1.3c0.9-1.3,2.1-2.3,4.8-2.3
		c6,0,5.9,5.6,5.9,8.6L28.2,27.3L28.2,27.3z"/>
</g>
</svg>
