<?xml version="1.0" encoding="utf-8"?>
<!-- Generator: Adobe Illustrator 24.0.2, SVG Export Plug-In . SVG Version: 6.00 Build 0)  -->
<svg version="1.1" id="Layer_1" xmlns="http://www.w3.org/2000/svg" xmlns:xlink="http://www.w3.org/1999/xlink" x="0px" y="0px"
	 viewBox="0 0 200 200" style="enable-background:new 0 0 200 200;" xml:space="preserve">
<style type="text/css">
	.st0{fill:#0069B4;}
	.st1{fill:none;stroke:#FFFFFF;stroke-width:4;stroke-linecap:round;stroke-linejoin:round;stroke-miterlimit:10;}
</style>
<circle class="st0" cx="100" cy="100" r="100"/>
<g>
	<line class="st1" x1="24.2" y1="158.4" x2="175.8" y2="158.4"/>
	<path class="st1" d="M116.3,158v-43.3c0-3.1-2.5-5.6-5.6-5.6H89.4c-3.1,0-5.6,2.5-5.6,5.6V158"/>
	<path class="st1" d="M73.8,136.6H60.6c-1.8,0-3.3-1.5-3.3-3.3v-17.1c0-1.8,1.5-3.3,3.3-3.3h13.2c1.8,0,3.3,1.5,3.3,3.3v17.1
		C77.1,135.1,75.6,136.6,73.8,136.6z"/>
	<path class="st1" d="M139.4,136.6h-13.2c-1.8,0-3.3-1.5-3.3-3.3v-17.1c0-1.8,1.5-3.3,3.3-3.3h13.2c1.8,0,3.3,1.5,3.3,3.3v17.1
		C142.7,135.1,141.2,136.6,139.4,136.6z"/>
	<line class="st1" x1="110.2" y1="133.5" x2="110.2" y2="142.4"/>
	<polygon class="st1" points="77.1,72.6 99.7,50 122.9,72.6 	"/>
	<path class="st1" d="M169.5,87.2c1.9,1.9,1,4.9-0.8,6.3c-1.8,1.4-4.6,1.6-6.1,0C158.2,88.6,100,31,100,31
		c-3.6,3.6-7.1,7.1-10.7,10.7c-7.7,7.7-15.4,15.4-23,23c-7.3,7.3-14.6,14.6-22,22c-1.9,1.9-3.8,3.8-5.7,5.7
		c-2.1,2.1-4.3,4.1-7.2,1.9c-2.3-1.7-2.7-5.2-0.6-7.3L100,17.7C100,17.7,168.5,86.2,169.5,87.2z"/>
	<line class="st1" x1="45.7" y1="85.8" x2="45.7" y2="149.3"/>
	<line class="st1" x1="154.9" y1="85.8" x2="154.9" y2="148.7"/>
	<line class="st1" x1="47.9" y1="69.9" x2="47.9" y2="36.7"/>
	<line class="st1" x1="65.5" y1="52.2" x2="65.5" y2="36.7"/>
	<path class="st1" d="M68.7,36.7H45.3c-1.3,0-2.4-1.1-2.4-2.4V27c0-1.3,1.1-2.4,2.4-2.4h23.3c1.3,0,2.4,1.1,2.4,2.4v7.3
		C71,35.7,70,36.7,68.7,36.7z"/>
	<path class="st1" d="M42.6,149.3C42.6,149.3,42.6,149.3,42.6,149.3c0.3,0,0.5-0.1,0.8-0.1c0.1,0,0.2,0,0.3,0c0.2,0,0.3,0,0.5,0
		c0.2,0,0.3,0,0.5,0c0.1,0,0.1,0,0.2,0c0.2,0,0.5,0,0.7,0.1c1.1,0.1,2.1-0.4,2.8-1.4c2.8-4.5,7.3-7.1,12.1-7.1
		c6.4,0,12.1,4.7,14.1,11.6c0.1,0.3,0.2,0.5,0.3,0.7c0.4,0.7,1,1.2,1.7,1.4c0.2,0.1,0.5,0.2,0.7,0.3c0.1,0,0.1,0.1,0.2,0.1
		c0.2,0.1,0.3,0.1,0.5,0.2c0.1,0,0.1,0.1,0.2,0.1c0.1,0.1,0.3,0.2,0.4,0.3c0.1,0,0.1,0.1,0.2,0.1c0.2,0.1,0.4,0.3,0.6,0.4
		c0,0,0,0,0,0c0.2,0.1,0.3,0.3,0.5,0.4c0.1,0.1,0.1,0.1,0.1,0.2c0.1,0.1,0.2,0.2,0.3,0.4c0.1,0.1,0.1,0.1,0.1,0.2
		c0.1,0.1,0.2,0.3,0.3,0.4c0,0.1,0.1,0.1,0.1,0.2c0.1,0.2,0.2,0.4,0.4,0.6c0,0,0,0,0,0H33.3C34.9,152.8,38.8,149.9,42.6,149.3z"/>
	<path class="st1" d="M167.7,158.1h-47.8c0,0,0,0,0,0c0.1-0.2,0.2-0.4,0.4-0.6c0-0.1,0.1-0.1,0.1-0.2c0.1-0.1,0.2-0.3,0.3-0.4
		c0-0.1,0.1-0.1,0.1-0.2c0.1-0.1,0.2-0.2,0.3-0.4c0-0.1,0.1-0.1,0.1-0.2c0.1-0.1,0.3-0.3,0.5-0.4c0,0,0,0,0,0
		c0.2-0.1,0.4-0.3,0.6-0.4c0.1,0,0.1-0.1,0.2-0.1c0.1-0.1,0.3-0.2,0.4-0.3c0.1,0,0.1-0.1,0.2-0.1c0.1-0.1,0.3-0.2,0.5-0.2
		c0.1,0,0.1-0.1,0.2-0.1c0.2-0.1,0.5-0.2,0.7-0.3c0.7-0.2,1.3-0.7,1.7-1.4c0.1-0.2,0.2-0.5,0.3-0.7c2-6.9,7.7-11.6,14.1-11.6
		c4.8,0,9.3,2.7,12.1,7.1c0.6,1,1.7,1.5,2.8,1.4c0.2,0,0.5-0.1,0.7-0.1c0.1,0,0.1,0,0.2,0c0.2,0,0.3,0,0.5,0c0.2,0,0.3,0,0.5,0
		c0.1,0,0.2,0,0.3,0c0.3,0,0.5,0.1,0.8,0.1c0,0,0,0,0,0C162.2,149.7,166.1,152.6,167.7,158.1z"/>
</g>
</svg>
