<?xml version="1.0" encoding="utf-8"?>
<!-- Generator: Adobe Illustrator 24.0.2, SVG Export Plug-In . SVG Version: 6.00 Build 0)  -->
<svg version="1.1" id="Layer_1" xmlns="http://www.w3.org/2000/svg" xmlns:xlink="http://www.w3.org/1999/xlink" x="0px" y="0px"
	 viewBox="0 0 200 200" style="enable-background:new 0 0 200 200;" xml:space="preserve">
<style type="text/css">
	.st0{fill:#0069B4;}
	.st1{fill:none;stroke:#FFFFFF;stroke-width:4;stroke-linecap:round;stroke-linejoin:round;stroke-miterlimit:10;}
</style>
<circle class="st0" cx="100" cy="100" r="100"/>
<g>
	<line class="st1" x1="34.8" y1="161.3" x2="170.7" y2="161.3"/>
	<polyline class="st1" points="47.9,30 47.9,127.2 47.9,136.6 47.9,161 	"/>
	<line class="st1" x1="113.1" y1="30" x2="113.1" y2="160.6"/>
	<line class="st1" x1="119.2" y1="30" x2="41.8" y2="30"/>
	<line class="st1" x1="113.1" y1="89.2" x2="164.3" y2="89.2"/>
	<line class="st1" x1="156.3" y1="89.2" x2="156.3" y2="160.6"/>
	<path class="st1" d="M66.6,59.6h-9.3c-1.1,0-1.9-0.9-1.9-1.9v-13c0-1.1,0.9-1.9,1.9-1.9h9.3c1.1,0,1.9,0.9,1.9,1.9v13
		C68.5,58.8,67.7,59.6,66.6,59.6z"/>
	<path class="st1" d="M85.4,59.6h-9.3c-1.1,0-1.9-0.9-1.9-1.9v-13c0-1.1,0.9-1.9,1.9-1.9h9.3c1.1,0,1.9,0.9,1.9,1.9v13
		C87.3,58.8,86.5,59.6,85.4,59.6z"/>
	<path class="st1" d="M104.6,59.6h-9.3c-1.1,0-1.9-0.9-1.9-1.9v-13c0-1.1,0.9-1.9,1.9-1.9h9.3c1.1,0,1.9,0.9,1.9,1.9v13
		C106.6,58.8,105.7,59.6,104.6,59.6z"/>
	<path class="st1" d="M66.6,91.5h-9.3c-1.1,0-1.9-0.9-1.9-1.9v-13c0-1.1,0.9-1.9,1.9-1.9h9.3c1.1,0,1.9,0.9,1.9,1.9v13
		C68.5,90.7,67.7,91.5,66.6,91.5z"/>
	<path class="st1" d="M85.4,91.5h-9.3c-1.1,0-1.9-0.9-1.9-1.9v-13c0-1.1,0.9-1.9,1.9-1.9h9.3c1.1,0,1.9,0.9,1.9,1.9v13
		C87.3,90.7,86.5,91.5,85.4,91.5z"/>
	<path class="st1" d="M104.6,91.5h-9.3c-1.1,0-1.9-0.9-1.9-1.9v-13c0-1.1,0.9-1.9,1.9-1.9h9.3c1.1,0,1.9,0.9,1.9,1.9v13
		C106.6,90.7,105.7,91.5,104.6,91.5z"/>
	<path class="st1" d="M130.5,115.5h-9.4c-1,0-1.9-0.8-1.9-1.9v-11.8c0-1,0.8-1.9,1.9-1.9h9.4c1,0,1.9,0.8,1.9,1.9v11.8
		C132.4,114.7,131.6,115.5,130.5,115.5z"/>
	<path class="st1" d="M147.9,115.5h-9.4c-1,0-1.9-0.8-1.9-1.9v-11.8c0-1,0.8-1.9,1.9-1.9h9.4c1,0,1.9,0.8,1.9,1.9v11.8
		C149.8,114.7,148.9,115.5,147.9,115.5z"/>
	<path class="st1" d="M130.5,138h-9.4c-1,0-1.9-0.8-1.9-1.9v-11.8c0-1,0.8-1.9,1.9-1.9h9.4c1,0,1.9,0.8,1.9,1.9v11.8
		C132.4,137.2,131.6,138,130.5,138z"/>
	<path class="st1" d="M147.9,138h-9.4c-1,0-1.9-0.8-1.9-1.9v-11.8c0-1,0.8-1.9,1.9-1.9h9.4c1,0,1.9,0.8,1.9,1.9v11.8
		C149.8,137.2,148.9,138,147.9,138z"/>
	<path class="st1" d="M128.2,161v-12.6c0-1.1,0.9-1.9,1.9-1.9h10.3c1.1,0,1.9,0.9,1.9,1.9V161"/>
	<path class="st1" d="M66.6,123.9h-9.3c-1.1,0-1.9-0.9-1.9-1.9v-13c0-1.1,0.9-1.9,1.9-1.9h9.3c1.1,0,1.9,0.9,1.9,1.9v13
		C68.5,123.1,67.7,123.9,66.6,123.9z"/>
	<path class="st1" d="M85.4,123.9h-9.3c-1.1,0-1.9-0.9-1.9-1.9v-13c0-1.1,0.9-1.9,1.9-1.9h9.3c1.1,0,1.9,0.9,1.9,1.9v13
		C87.3,123.1,86.5,123.9,85.4,123.9z"/>
	<path class="st1" d="M104.6,123.9h-9.3c-1.1,0-1.9-0.9-1.9-1.9v-13c0-1.1,0.9-1.9,1.9-1.9h9.3c1.1,0,1.9,0.9,1.9,1.9v13
		C106.6,123.1,105.7,123.9,104.6,123.9z"/>
	<path class="st1" d="M66.6,155.9h-9.3c-1.1,0-1.9-0.9-1.9-1.9v-13c0-1.1,0.9-1.9,1.9-1.9h9.3c1.1,0,1.9,0.9,1.9,1.9v13
		C68.5,155,67.7,155.9,66.6,155.9z"/>
	<path class="st1" d="M104.6,155.9h-9.3c-1.1,0-1.9-0.9-1.9-1.9v-13c0-1.1,0.9-1.9,1.9-1.9h9.3c1.1,0,1.9,0.9,1.9,1.9v13
		C106.6,155,105.7,155.9,104.6,155.9z"/>
	<path class="st1" d="M73.7,161.2v-23.4c0-0.9,0.8-1.7,1.7-1.7h10.7c0.9,0,1.7,0.8,1.7,1.7v23.4"/>
</g>
</svg>
