<?xml version="1.0" encoding="utf-8"?>
<!-- Generator: Adobe Illustrator 24.0.2, SVG Export Plug-In . SVG Version: 6.00 Build 0)  -->
<svg version="1.1" id="Capa_1" xmlns="http://www.w3.org/2000/svg" xmlns:xlink="http://www.w3.org/1999/xlink" x="0px" y="0px"
	 viewBox="0 0 250 249.9" style="enable-background:new 0 0 250 249.9;" xml:space="preserve">
<style type="text/css">
	.st0{fill:#CBE2FF;}
	.st1{fill:#BED8FB;}
	.st2{fill:#365E7D;}
	.st3{fill:#2B4D66;}
	.st4{fill:#4A80AA;}
	.st5{fill:#407093;}
	.st6{fill:#E4F6FF;}
	.st7{fill:#E28086;}
	.st8{fill:#DD636E;}
	.st9{fill:#FFDDCE;}
	.st10{fill:#FFCBBE;}
	.st11{fill:#F4FBFF;}
</style>
<g>
	<g>
		<g>
			<path class="st0" d="M125,235.9l49.5-12.5c28.3-23.5,46.3-58.9,46.3-98.5C220.8,63.8,178,12.7,120.7,0C53.7,2.3,0,57.3,0,124.9
				c0,34.7,14.2,66.1,37,88.8L125,235.9z"/>
		</g>
		<g>
			<path class="st1" d="M218.2,124.9c0,41-19.7,77.3-50.2,100.1l44.9-11.3c22.9-22.7,37-54.1,37-88.8c0-69-56-125-125-125
				c-5.4,0-10.7,0.3-15.9,1C170.6,8.7,218.2,61.3,218.2,124.9L218.2,124.9z"/>
		</g>
		<g>
			<g>
				<g>
					<path class="st2" d="M156.1,47.3c0-6.4-5.2-11.6-11.6-11.6h-39.8c-14.7,0-26.6,11.9-26.6,26.6v29.5h93.9V62.7
						c0-6.4-5.2-11.6-11.6-11.6H160C157.8,51.2,156.1,49.4,156.1,47.3L156.1,47.3z"/>
					<path class="st3" d="M160.4,51.2H160c-2.2,0-3.9-1.7-3.9-3.9c0-6.4-5.2-11.6-11.6-11.6h-4.4v56.1h31.8V62.7
						C171.9,56.3,166.7,51.2,160.4,51.2L160.4,51.2z"/>
					<path class="st4" d="M207.5,181.7c-3.1-3-6.8-5.4-11.1-6.7l-34.1-10.8l-37.3-1.3l-37.3,1.3L53.6,175
						c-11.5,3.7-19.4,14.4-19.4,26.5v9.3c21.9,23.1,52.5,37.9,86.5,39C158.9,241.4,190.6,215.9,207.5,181.7L207.5,181.7z"/>
					<path class="st5" d="M215.8,210.8v-9.3c0-8.6-3.9-16.4-10.3-21.6c-18.1,36.9-53.9,63.6-96.4,69c5.1,0.6,10.3,1,15.6,1
						c5.1,0,10.1-0.3,15.1-0.9C169.6,245.5,196.2,231.5,215.8,210.8L215.8,210.8z"/>
					<path class="st6" d="M127.8,248.1c7.6-15,27.3-57.6,21.6-84.3l-24.5-9.5l-24.5,9.5c-5.8,27.5,15.3,71.9,22.3,85.6
						C124.5,249,126.2,248.5,127.8,248.1L127.8,248.1z"/>
					<path class="st7" d="M140.7,236.2l-9.9-39h-11.6l-9.9,38.9l12.2,13.6c3.1-0.7,6.2-1.5,9.2-2.5L140.7,236.2z"/>
					<path class="st8" d="M121.7,249.9c1,0,2,0,3,0c1.2,0,2.4,0,3.5-0.1l6.3-7c-5,1.7-10.1,3.2-15.3,4.3L121.7,249.9z"/>
					<g>
						<g>
							<g>
								<g>
									<g>
										<g>
											<g>
												<g>
													<path class="st9" d="M145.9,160.2v-22h-41.8v22c0,11.5,20.9,24.1,20.9,24.1S145.9,171.7,145.9,160.2L145.9,160.2z"/>
												</g>
											</g>
										</g>
									</g>
								</g>
							</g>
						</g>
						<path class="st9" d="M171.9,88h-8c-4.4,0-8-3.6-8-8v-4.4c0-5.8-5.7-9.9-11.2-8.1c-12.8,4.2-26.6,4.2-39.5,0l0,0
							c-5.5-1.8-11.2,2.3-11.2,8.1v4.4c0,4.4-3.6,8-8,8h-8v13.2c0,3.4,2.7,6.1,6.1,6.1c1.1,0,1.9,0.8,2,1.9
							c1.3,20.3,18.2,36.5,38.9,36.5s37.6-16.1,38.9-36.5c0.1-1.1,0.9-1.9,2-1.9c3.4,0,6.1-2.7,6.1-6.1L171.9,88L171.9,88z"/>
						<path class="st10" d="M163.9,88c-4.4,0-8-3.6-8-8v-4.4c0-5.8-5.7-9.9-11.2-8.1c-1.5,0.5-3.1,0.9-4.6,1.3v43.4
							c-0.2,14.1-8,26.4-19.4,33.1c1.4,0.2,2.8,0.2,4.3,0.2c20.7,0,37.6-16.1,38.9-36.5c0.1-1.1,0.9-1.9,2-1.9
							c3.4,0,6.1-2.7,6.1-6.1V88L163.9,88L163.9,88z"/>
					</g>
					<g>
						<path class="st11" d="M104.1,154.3l-16.4,13.3l17.2,21.2c2.1,2,5.4,2.2,7.6,0.3l12.9-10.8L104.1,154.3z"/>
						<path class="st11" d="M145.9,154.3l-20.5,24.1l12.1,10.4c2.2,1.9,5.5,1.8,7.6-0.2l17.1-20.9L145.9,154.3z"/>
					</g>
				</g>
				<path class="st2" d="M104.1,154.3L80,166.1c-1.8,0.9-2.6,3.1-1.6,4.9l4.7,9.1c1.2,2.4,0.8,5.3-1.1,7.1c-1,1-2,2-2.9,2.9
					c-1.6,1.6-2.2,4-1.5,6.2c5.7,17.3,33.1,43.9,43.4,53.5c0.7,0,1.4,0,2.1,0C115.6,235.3,89,179.8,104.1,154.3L104.1,154.3z"/>
				<path class="st2" d="M168,187.3c-1.9-1.9-2.3-4.8-1.1-7.1l4.7-9.1c0.9-1.8,0.2-4-1.6-4.9l-24.1-11.8c15.1,25.5-11.5,81-19,95.7
					c0.7,0,1.4,0,2.1-0.1c10.4-9.6,37.7-36.1,43.4-53.4c0.7-2.2,0.1-4.6-1.5-6.2C170,189.3,168.9,188.2,168,187.3L168,187.3z"/>
				<path class="st8" d="M125.4,178.3l-12.7,10.6l6.5,8.2h11.6l6.5-8.7L125.4,178.3z"/>
			</g>
		</g>
	</g>
</g>
</svg>
