<?xml version="1.0" encoding="utf-8"?>
<!-- Generator: Adobe Illustrator 24.0.2, SVG Export Plug-In . SVG Version: 6.00 Build 0)  -->
<svg version="1.1" id="Layer_1" xmlns="http://www.w3.org/2000/svg" xmlns:xlink="http://www.w3.org/1999/xlink" x="0px" y="0px"
	 viewBox="0 0 200 201" style="enable-background:new 0 0 200 201;" xml:space="preserve">
<style type="text/css">
	.st0{fill:#0069B4;}
	.st1{fill:none;stroke:#FFFFFF;stroke-width:4;stroke-linecap:round;stroke-linejoin:round;stroke-miterlimit:10;}
</style>
<circle class="st0" cx="100" cy="100" r="100"/>
<g>
	<circle class="st1" cx="102.3" cy="59.4" r="36.7"/>
	<circle class="st1" cx="113.1" cy="48.6" r="13.1"/>
	<polyline class="st1" points="84.5,91.7 58.8,117.4 48.2,120.3 46.7,130 36.5,132.5 35.1,140.2 30.7,144.6 15.7,144.6 15.7,132 
		70.2,77.5 	"/>
	<path class="st1" d="M170.2,122.3c1.7,1.7,2.7,4.6,0.5,6.8c-2.7,2.7-4.9,0.4-6.3-0.5l-2.9-2.4v32.9h-24.9h-0.3h-24.9v-32.9
		l-2.9,2.4c-1.4,0.9-3.6,3.1-6.3,0.5c-2.2-2.2-1.2-5.1,0.5-6.8c3.1-3.1,34.1-30.5,34.1-30.5S169.5,121.5,170.2,122.3z"/>
	<path class="st1" d="M148,158.9v-26.6c0-1.2-1-2.2-2.2-2.2h-16c-1.2,0-2.2,1-2.2,2.2v26.6"/>
	<path class="st1" d="M138.5,104.8c-1.7,1.7-4.2,2.7-7.8,1.7c-8.2-2.2-13.4-12.2-16.5-19.3c-2.6-5.9-4.2-12.3-4.2-18.8
		c0-4.9,0.5-13.5,6-15.5c2.3-0.9,5.1-0.4,7,1.3"/>
	<path class="st1" d="M137.8,70.2c6.1,15,4.6,23.7,4.6,23.7s0,1.1-0.3,2.6"/>
	<path class="st1" d="M119.1,51.8"/>
	<circle class="st1" cx="137.1" cy="107" r="7"/>
</g>
</svg>
