<?xml version="1.0" encoding="utf-8"?>
<!-- Generator: Adobe Illustrator 16.0.3, SVG Export Plug-In . SVG Version: 6.00 Build 0)  -->
<!DOCTYPE svg PUBLIC "-//W3C//DTD SVG 1.1//EN" "http://www.w3.org/Graphics/SVG/1.1/DTD/svg11.dtd">
<svg version="1.1" id="Capa_1" xmlns="http://www.w3.org/2000/svg" xmlns:xlink="http://www.w3.org/1999/xlink" x="0px" y="0px"
	 width="45.917px" height="15.833px" viewBox="0 0 45.917 15.833" enable-background="new 0 0 45.917 15.833" xml:space="preserve">
<rect x="0.707" y="0.436" fill="#1767A8" width="13.162" height="13.932"/>
<g>
	<rect x="1.273" y="2.12" fill="none" width="12.03" height="10.564"/>
	<path fill="#FFFFFF" d="M7.083,2.547c1.722,0,3.081,0.643,3.081,2.547c0,0.922-0.4,1.71-1.25,2.147
		c1.25,0.219,2.135,0.91,2.135,2.523c0,1.65-1.201,2.79-3.275,2.79H3.978V2.547H7.083z M6.44,6.465c0.982,0,1.516-0.303,1.516-1.14
		c0-0.716-0.521-1.019-1.516-1.019H6.258v2.159H6.44z M6.974,10.796c1.08,0,1.674-0.328,1.674-1.116c0-0.922-0.594-1.25-1.674-1.25
		H6.258v2.366H6.974z"/>
</g>
<g>
	<rect x="25.745" y="5.886" fill="none" width="16.762" height="8.277"/>
</g>
<g>
	<rect x="0.484" y="5.59" fill="none" width="59.691" height="14.19"/>
	<path fill="#1C67A2" d="M20.51,10.136c0,1.637-0.899,2.472-2.584,2.472s-2.584-0.835-2.584-2.472v-4.27h1.509v3.829
		c0,1.107,0.337,1.429,1.076,1.429s1.075-0.321,1.075-1.429V5.866h1.509V10.136z"/>
	<path fill="#1C67A2" d="M23.756,5.866c1.228,0,2.159,0.666,2.159,1.966c0,0.995-0.546,1.662-1.356,1.918l2.28,2.737H24.92
		l-2.023-2.617v2.617h-1.509V5.866H23.756z M23.074,8.804c0.57,0,1.252-0.04,1.252-0.867S23.644,7.07,23.074,7.07h-0.177v1.733
		H23.074z"/>
	<path fill="#1C67A2" d="M33.119,10.216c-0.361,1.678-1.758,2.392-3.058,2.392c-1.782,0-3.227-1.533-3.227-3.427
		c0-1.902,1.364-3.436,3.227-3.436c1.163,0,1.975,0.434,2.552,1.132l-0.987,1.083c-0.385-0.618-0.891-0.851-1.477-0.851
		c-0.931,0-1.686,0.923-1.686,2.071c0,1.124,0.755,2.039,1.686,2.039c0.723,0,1.437-0.465,1.437-1.276h-1.524V8.78h3.058V10.216z"/>
	<path fill="#1C67A2" d="M36.822,5.746c1.838,0,3.331,1.493,3.331,3.427c0,1.935-1.429,3.436-3.331,3.436
		c-1.958,0-3.339-1.501-3.339-3.436C33.483,7.239,35.001,5.746,36.822,5.746z M36.822,11.147c1.204,0,1.702-0.987,1.702-1.975
		c0-0.987-0.53-1.974-1.702-1.974c-1.163,0-1.709,0.987-1.709,1.974C35.113,10.16,35.587,11.147,36.822,11.147z"/>
	<path fill="#1C67A2" d="M45.31,6.372l-0.61,1.204c0,0-0.658-0.458-1.34-0.458c-0.514,0-0.787,0.233-0.787,0.594
		c0,0.369,0.626,0.634,1.381,0.955c0.738,0.313,1.549,0.939,1.549,1.806c0,1.581-1.204,2.135-2.496,2.135
		c-1.549,0-2.488-0.875-2.488-0.875l0.755-1.268c0,0,0.883,0.746,1.621,0.746c0.329,0,0.955-0.032,0.955-0.65
		c0-0.481-0.706-0.698-1.493-1.091c-0.794-0.394-1.26-1.012-1.26-1.702c0-1.236,1.092-2.023,2.159-2.023
		C44.459,5.746,45.31,6.372,45.31,6.372z"/>
</g>
<g>
	<rect x="-98.669" y="1.353" fill="none" width="103.333" height="26.666"/>
</g>
<g>
	<rect x="-10.116" y="13.032" fill="none" width="80.892" height="15.904"/>
	<path d="M20.829,13.129c0.464,0,0.813,0.24,0.813,0.733c0,0.49-0.349,0.764-0.813,0.764h-0.326v0.883H19.96v-2.38H20.829z
		 M20.656,14.193c0.213,0,0.415-0.072,0.415-0.314c0-0.245-0.202-0.317-0.415-0.317h-0.153v0.632H20.656z"/>
	<path d="M22.729,13.129c0.441,0,0.776,0.24,0.776,0.707c0,0.357-0.196,0.597-0.488,0.689l0.819,0.983h-0.689l-0.727-0.94v0.94
		h-0.542v-2.38H22.729z M22.484,14.185c0.205,0,0.45-0.014,0.45-0.312c0-0.297-0.245-0.312-0.45-0.312H22.42v0.623H22.484z"/>
	<path d="M25.033,13.086c0.66,0,1.197,0.536,1.197,1.231s-0.513,1.234-1.197,1.234c-0.704,0-1.2-0.539-1.2-1.234
		S24.378,13.086,25.033,13.086z M25.033,15.027c0.433,0,0.611-0.355,0.611-0.71s-0.19-0.709-0.611-0.709
		c-0.418,0-0.614,0.354-0.614,0.709S24.588,15.027,25.033,15.027z"/>
	<path d="M27.332,13.129c0.465,0,0.813,0.24,0.813,0.733c0,0.49-0.349,0.764-0.813,0.764h-0.325v0.883h-0.542v-2.38H27.332z
		 M27.159,14.193c0.214,0,0.415-0.072,0.415-0.314c0-0.245-0.201-0.317-0.415-0.317h-0.152v0.632H27.159z"/>
	<path d="M28.924,15.509h-0.542v-2.38h0.542V15.509z"/>
	<path d="M30.63,13.605h-0.819v0.473h0.784v0.476h-0.784v0.479h0.819v0.477h-1.361v-2.38h1.361V13.605z"/>
	<path d="M31.628,13.129c0.651,0,1.199,0.496,1.199,1.188c0,0.695-0.545,1.191-1.199,1.191h-0.689v-2.38H31.628z M31.564,15.024
		c0.4,0,0.675-0.306,0.678-0.704c0-0.397-0.274-0.706-0.678-0.706H31.48v1.41H31.564z"/>
	<path d="M35.232,15.509h-0.583l-0.176-0.477h-0.905l-0.176,0.477H32.81l0.96-2.38h0.502L35.232,15.509z M34.023,13.864h-0.006
		l-0.265,0.692h0.536L34.023,13.864z"/>
	<path d="M36.01,13.129c0.652,0,1.2,0.496,1.2,1.188c0,0.695-0.545,1.191-1.2,1.191H35.32v-2.38H36.01z M35.946,15.024
		c0.401,0,0.675-0.306,0.678-0.704c0-0.397-0.273-0.706-0.678-0.706h-0.083v1.41H35.946z"/>
	<path d="M38.807,13.605h-0.818v0.473h0.784v0.476h-0.784v0.479h0.818v0.477h-1.361v-2.38h1.361V13.605z"/>
	<path d="M40.73,13.311l-0.219,0.433c0,0-0.236-0.164-0.481-0.164c-0.185,0-0.283,0.084-0.283,0.214
		c0,0.132,0.226,0.228,0.496,0.343c0.266,0.112,0.557,0.338,0.557,0.649c0,0.567-0.433,0.767-0.896,0.767
		c-0.557,0-0.895-0.314-0.895-0.314l0.271-0.455c0,0,0.317,0.268,0.582,0.268c0.118,0,0.344-0.012,0.344-0.233
		c0-0.173-0.254-0.251-0.537-0.393c-0.285-0.141-0.452-0.363-0.452-0.611c0-0.443,0.392-0.727,0.775-0.727
		C40.425,13.086,40.73,13.311,40.73,13.311z"/>
</g>
<g>
</g>
<g>
</g>
<g>
</g>
<g>
</g>
<g>
</g>
<g>
</g>
</svg>
